# xmcd
#
# Track frame offsets:
#	150
#	873
#	16780
#	27125
#	45753
#	59079
#	76035
#	90373
#	103911
#	107890
#	128180
#	142521
#	159292
#	176224
#	191000
#	201169
#	202544
#	220129
#	237142
#	240705
#	254320
#	256754
#	274983
#	292572
#	310634
#	324339
#	324941
#	325567
#	326525
#	327170
#	327895
#	328603
#	329358
#	329963
#	330759
#
# Disc length: 4415 seconds
#
# Revision: 1
# Processed by: cddbd v1.5.2PL0 Copyright (c) Steve Scherf et al.
# Submitted via: audiograbber 1.83.01
#
DISCID=c7113d23
DTITLE=Country Hotdisc - Country Hotdisc 033
DYEAR=2001
DGENRE=
TTITLE0=Intro - Intro
TTITLE1=It´s All Over Now - The Drive
TTITLE2=When It Comes To Love - Jody Jenkins
TTITLE3=The Wolves Cry - Clive John
TTITLE4=Whiskey O - B. Jeff Stone
TTITLE5=In Another World - Joe Diffie
TTITLE6=High Fasion Queen - John Mccane
TTITLE7=You´re The Best Part Of Me - Dale Watson
TTITLE8=Talking Bout Songs - Dave Sheriff
TTITLE9=Boogie With Me Baby - Dave Sheriff
TTITLE10=Miles Of Texas - Annie B
TTITLE11=Shadows - Billy Yates
TTITLE12=Ain´t Nobody Gonna Take That From Me - Collin Ray
TTITLE13=Here´s One For The Memeorie - Dixon J Scott
TTITLE14=As One - D K Davis
TTITLE15=Talking Bout Songs - Kenny Butterill
TTITLE16=The Towns You Left Behind - Kenny Butterill
TTITLE17=Hannah - Todd Dunford
TTITLE18=Talking Bout Songs - J J Johns
TTITLE19=Old Memory - J J Johns
TTITLE20=Talking Bout Songs - Susan Hedges
TTITLE21=Jerusalem Syndrome - Susan Hedges
TTITLE22=Texas Girl - Diario
TTITLE23=That´s Rich - Ruffnex
TTITLE24=Pride Get In The Way - Mike Headrick
TTITLE25=Generic Radio Liners - Dave Sheriff
TTITLE26=Generic Radio Liners - Dave Sheriff
TTITLE27=Generic Radio Liners - Susan Hedges
TTITLE28=Generic Radio Liners - Kenny Butterill
TTITLE29=Generic Radio Liners - Dixon J Scott
TTITLE30=Generic Radio Liners - Dixon J Scott
TTITLE31=Generic Radio Liners - Dixon J Scott
TTITLE32=Generic Radio Liners - Generic Radio Liners
TTITLE33=Generic Radio Liners - Generic Radio Liners
TTITLE34=Generic Radio Liners - Generic Radio Liners
EXTD=
EXTT0=
EXTT1=
EXTT2=
EXTT3=
EXTT4=
EXTT5=
EXTT6=
EXTT7=
EXTT8=
EXTT9=
EXTT10=
EXTT11=
EXTT12=
EXTT13=
EXTT14=
EXTT15=
EXTT16=
EXTT17=
EXTT18=
EXTT19=
EXTT20=
EXTT21=
EXTT22=
EXTT23=
EXTT24=
EXTT25=
EXTT26=
EXTT27=
EXTT28=
EXTT29=
EXTT30=
EXTT31=
EXTT32=
EXTT33=
EXTT34=
PLAYORDER=
